<?xml version="1.0" encoding="utf-8"?>
<!-- Generator: Adobe Illustrator 27.0.0, SVG Export Plug-In . SVG Version: 6.00 Build 0)  -->
<svg version="1.1" id="Layer_1" xmlns="http://www.w3.org/2000/svg" xmlns:xlink="http://www.w3.org/1999/xlink" x="0px" y="0px"
	 viewBox="0 0 324.1 51" style="enable-background:new 0 0 324.1 51;" xml:space="preserve">
<style type="text/css">
	.st0{enable-background:new    ;}
	.st1{fill:#4792E6;}
	.st2{fill:#231F20;}
</style>
<g class="st0">
	<path class="st1" d="M27.6,30.8c-0.4,2.4-0.9,4.4-1.4,5.9c-0.5,1.6-1.4,3.1-2.8,4.7c-1.3,1.6-2.8,2.7-4.6,3.5
		c-1.8,0.8-3.6,1.2-5.5,1.2c-1.5,0-2.9-0.4-4.2-1.1c-1.4-0.7-2.5-1.7-3.4-2.8l6.2-6c0.1,0.7,0.4,1.3,1,1.9c0.5,0.6,1.1,0.9,1.7,0.9
		c0.9,0,1.6-0.3,2.2-0.9c0.6-0.6,1.1-1.3,1.4-2.2c0.4-0.9,0.6-1.7,0.8-2.6c0.2-0.9,0.4-1.9,0.5-3c0-0.2,0.1-0.5,0.2-0.8l4.1-26.3H32
		L27.6,30.8z"/>
	<path class="st1" d="M37.5,3.1h8.2L42,26.5c-0.3,2.1-0.5,3.9-0.5,5.2c0,2.2,0.4,3.9,1.3,5.2c0.9,1.3,2.4,2,4.6,2
		c1.6,0,3-0.4,4.2-1.1c1.1-0.8,2.1-1.8,2.7-3s1.2-2.5,1.6-3.9c0.4-1.4,0.7-2.9,0.9-4.4l3.7-23.4h8.2l-3.9,25c-0.4,2.6-1.1,5-2,7.2
		c-0.9,2.2-2.1,4.1-3.7,5.7c-1.5,1.6-3.3,2.9-5.4,3.7c-2.1,0.9-4.5,1.3-7.3,1.3c-4.5,0-7.8-1.2-9.9-3.5c-2.1-2.4-3.2-5.6-3.2-9.7
		c0-1.4,0.1-3,0.4-4.7L37.5,3.1z"/>
	<path class="st1" d="M92.7,12.3c-0.6-1.1-1.4-2-2.4-2.6c-0.9-0.6-2.1-0.9-3.4-0.9c-1.3,0-2.6,0.5-3.8,1.4c-1.2,0.9-1.9,2-2.1,3.4
		c0,0,0,0.1-0.1,0.3c0,0.1,0,0.3,0,0.3c0,1.1,0.4,1.9,1.3,2.6c0.9,0.7,2.2,1.4,4.1,2.3c1.4,0.6,2.5,1.2,3.4,1.7
		c0.9,0.5,1.7,1.1,2.5,1.8c0.8,0.7,1.5,1.7,1.9,2.8c0.5,1.1,0.7,2.4,0.7,3.9c0,0.8-0.1,1.6-0.2,2.4c-0.3,2.1-1,4-1.9,5.7
		c-0.9,1.8-2.1,3.3-3.5,4.6c-1.4,1.3-3,2.3-4.8,3c-1.8,0.7-3.8,1.1-5.9,1.1c-2.8,0-5.1-0.7-7.1-2.2c-1.9-1.4-3.4-3.4-4.6-6l6.1-5.2
		c0.3,1.7,1.1,3.1,2.3,4.3c1.2,1.2,2.6,1.8,4.3,1.8c1.6,0,3-0.6,4.2-1.8c1.2-1.2,1.9-2.6,2.2-4.3c0-0.1,0-0.3,0-0.5
		c0-0.3,0.1-0.4,0.1-0.5c0-1.4-0.5-2.5-1.4-3.3c-1-0.8-2.4-1.5-4.2-2.2C80.4,26.1,80.1,26,80,26c-2.5-1.1-4.4-2.4-5.7-3.7
		c-1.3-1.4-1.9-3.2-1.9-5.5c0-0.7,0.1-1.4,0.2-2.2c0.3-1.7,0.8-3.4,1.7-4.9c0.9-1.5,1.9-2.9,3.2-4c1.3-1.1,2.7-2,4.3-2.7
		c1.6-0.6,3.3-1,5-1c1.9,0,3.9,0.4,6,1.3c2.1,0.9,3.6,2,4.6,3.4L92.7,12.3z"/>
	<path class="st1" d="M110.6,45h-8.2l5.5-34.8h-8.4l1.1-7.1h25l-1.1,7.1h-8.4L110.6,45z"/>
	<path class="st1" d="M156.2,30.8c-0.4,2.4-0.9,4.4-1.4,5.9c-0.5,1.6-1.4,3.1-2.8,4.7c-1.3,1.6-2.8,2.7-4.6,3.5
		c-1.8,0.8-3.6,1.2-5.5,1.2c-1.5,0-2.9-0.4-4.2-1.1c-1.4-0.7-2.5-1.7-3.4-2.8l6.2-6c0.1,0.7,0.4,1.3,1,1.9c0.5,0.6,1.1,0.9,1.7,0.9
		c0.9,0,1.6-0.3,2.2-0.9c0.6-0.6,1.1-1.3,1.4-2.2c0.4-0.9,0.6-1.7,0.8-2.6c0.2-0.9,0.4-1.9,0.5-3c0-0.2,0.1-0.5,0.2-0.8l4.1-26.3
		h8.2L156.2,30.8z"/>
	<path class="st2" d="M165,3.1h9.7l4.6,13l8.2-13h9.7l-14.7,19.7l9.4,22.2h-9.5l-6-15.3L165.8,45h-9.6l16.9-22.2L165,3.1z"/>
	<path class="st1" d="M227.2,14.2c-0.9-1.4-2.1-2.5-3.6-3.3c-1.5-0.8-3.1-1.2-4.9-1.2c-1.9,0-3.7,0.4-5.3,1.2
		c-1.7,0.8-3.1,1.9-4.4,3.2c-1.3,1.4-2.3,2.9-3.2,4.7c-0.8,1.7-1.4,3.5-1.7,5.3c-0.1,0.9-0.2,1.7-0.2,2.6c0,3.2,0.9,6,2.7,8.2
		c1.8,2.2,4.3,3.4,7.5,3.4c1.7,0,3.5-0.4,5.2-1.2c1.8-0.8,3.4-1.9,4.7-3.2l-1.6,9.7c-1.8,0.8-3.5,1.4-5.1,1.8
		c-1.6,0.4-3.2,0.7-4.7,0.7c-2.6,0-4.9-0.5-7.1-1.4c-2.1-0.9-4-2.2-5.5-3.9s-2.7-3.6-3.5-5.8s-1.2-4.5-1.2-7c0-1.2,0.1-2.4,0.3-3.6
		c0.5-3,1.4-5.8,2.8-8.5c1.4-2.7,3.2-5.1,5.4-7.2c2.2-2.1,4.7-3.7,7.4-4.9c2.7-1.2,5.6-1.8,8.6-1.8c3.3,0,6.2,0.8,8.9,2.4
		L227.2,14.2z"/>
	<path class="st1" d="M255.5,3.1h10.1l-18.9,19.3L259.8,45h-10.5l-10.4-18.8h-0.1l-3,18.8h-8.2l6.6-41.9h8.2l-2.8,17.7h0.1
		L255.5,3.1z"/>
	<path class="st1" d="M286.3,45h-8.2l6.6-41.9h8.2L286.3,45z"/>
	<path class="st1" d="M305.8,45h-8.2l5.5-34.8h-8.4l1.1-7.1h25l-1.1,7.1h-8.4L305.8,45z"/>
</g>
</svg>
