<!--?xml version="1.0" encoding="UTF-8"?-->
<svg id="Layer_1" data-name="Layer 1" xmlns="http://www.w3.org/2000/svg" viewBox="0 0 324.1 51" width="324.1000061035156" height="51">
  <defs>
    <style>
      .cls-1 {
        fill: #231f20;
      }

      .cls-2 {
        fill: #4792e6;
      }

      .cls-3 {
        isolation: isolate;
      }
    </style>
  </defs>
  <g class="cls-3">
    <path class="cls-2 svg-elem-1" d="M27.63,30.76c-.41,2.41-.87,4.39-1.39,5.94-.52,1.55-1.44,3.11-2.78,4.67-1.3,1.55-2.82,2.73-4.58,3.53-1.76,.79-3.6,1.19-5.53,1.19-1.48,0-2.9-.37-4.25-1.11-1.35-.74-2.47-1.68-3.36-2.83l6.16-6c.11,.67,.43,1.29,.97,1.86,.54,.58,1.12,.86,1.75,.86,.85,0,1.57-.29,2.17-.86,.59-.57,1.06-1.29,1.42-2.17,.35-.87,.62-1.74,.81-2.61,.18-.87,.35-1.88,.5-3.03,.04-.19,.09-.46,.17-.83L23.8,3.1h8.16l-4.33,27.66Z"></path>
    <path class="cls-2 svg-elem-2" d="M37.52,3.1h8.16l-3.67,23.44c-.33,2.15-.5,3.89-.5,5.22,0,2.18,.44,3.93,1.31,5.25,.87,1.31,2.4,1.97,4.58,1.97,1.63,0,3.02-.38,4.17-1.14,1.15-.76,2.05-1.75,2.72-2.97s1.18-2.52,1.55-3.89c.37-1.37,.68-2.85,.94-4.44l3.67-23.44h8.16l-3.94,25.05c-.41,2.63-1.07,5.03-2,7.19-.93,2.17-2.15,4.05-3.67,5.66-1.52,1.61-3.33,2.86-5.44,3.75-2.11,.89-4.54,1.33-7.27,1.33-4.52,0-7.83-1.17-9.94-3.53-2.11-2.35-3.17-5.58-3.17-9.69,0-1.44,.13-3.02,.39-4.72l3.94-25.05Z"></path>
    <path class="cls-2 svg-elem-3" d="M92.66,12.32c-.63-1.11-1.42-1.96-2.36-2.55-.94-.59-2.06-.89-3.36-.89s-2.59,.45-3.78,1.36c-1.19,.91-1.87,2.03-2.05,3.36,0,.04-.02,.15-.06,.33v.33c0,1.07,.43,1.94,1.28,2.61,.85,.67,2.2,1.43,4.05,2.28,1.41,.63,2.54,1.19,3.42,1.67,.87,.48,1.71,1.09,2.53,1.83,.81,.74,1.46,1.67,1.94,2.78,.48,1.11,.72,2.43,.72,3.94,0,.78-.06,1.57-.17,2.39-.33,2.07-.95,3.99-1.86,5.75-.91,1.76-2.06,3.28-3.47,4.55-1.41,1.28-3.02,2.27-4.83,2.97-1.81,.7-3.78,1.05-5.89,1.05-2.78,0-5.13-.72-7.05-2.17-1.93-1.44-3.44-3.44-4.55-6l6.11-5.17c.33,1.7,1.09,3.15,2.28,4.33,1.18,1.19,2.61,1.78,4.28,1.78s3.04-.59,4.22-1.78c1.18-1.18,1.91-2.61,2.17-4.28v-.5c.04-.26,.06-.43,.06-.5,0-1.44-.48-2.54-1.44-3.3-.96-.76-2.35-1.51-4.17-2.25-.3-.15-.52-.24-.67-.28-2.52-1.11-4.42-2.36-5.72-3.75-1.3-1.39-1.94-3.23-1.94-5.53,0-.7,.06-1.42,.17-2.17,.26-1.74,.81-3.37,1.67-4.89,.85-1.52,1.92-2.85,3.19-4,1.28-1.15,2.72-2.05,4.33-2.69,1.61-.65,3.29-.97,5.03-.97,1.92,0,3.93,.44,6.03,1.31,2.09,.87,3.64,1.99,4.64,3.36l-4.72,5.66Z"></path>
    <path class="cls-2 svg-elem-4" d="M110.6,44.97h-8.16l5.5-34.76h-8.44l1.11-7.11h25.05l-1.11,7.11h-8.44l-5.5,34.76Z"></path>
    <path class="cls-2 svg-elem-5" d="M156.19,30.76c-.41,2.41-.87,4.39-1.39,5.94-.52,1.55-1.44,3.11-2.78,4.67-1.3,1.55-2.82,2.73-4.58,3.53-1.76,.79-3.6,1.19-5.53,1.19-1.48,0-2.9-.37-4.25-1.11-1.35-.74-2.47-1.68-3.36-2.83l6.16-6c.11,.67,.43,1.29,.97,1.86,.54,.58,1.12,.86,1.75,.86,.85,0,1.57-.29,2.17-.86,.59-.57,1.06-1.29,1.42-2.17,.35-.87,.62-1.74,.81-2.61,.18-.87,.35-1.88,.5-3.03,.04-.19,.09-.46,.17-.83l4.11-26.27h8.16l-4.33,27.66Z"></path>
    <path class="cls-1 svg-elem-6" d="M164.96,3.1h9.66l4.61,12.99,8.16-12.99h9.66l-14.72,19.71,9.38,22.16h-9.5l-6-15.33-10.44,15.33h-9.55l16.88-22.16-8.16-19.71Z"></path>
    <path class="cls-2 svg-elem-7" d="M227.16,14.21c-.93-1.41-2.14-2.5-3.64-3.28-1.5-.78-3.14-1.17-4.92-1.17-1.89,0-3.67,.4-5.33,1.19-1.67,.8-3.14,1.88-4.42,3.25-1.28,1.37-2.33,2.93-3.17,4.67-.83,1.74-1.4,3.52-1.69,5.33-.11,.85-.17,1.7-.17,2.55,0,3.22,.91,5.95,2.72,8.19,1.81,2.24,4.31,3.36,7.5,3.36,1.7,0,3.45-.41,5.25-1.22,1.79-.81,3.38-1.89,4.75-3.22l-1.55,9.72c-1.81,.78-3.53,1.39-5.14,1.83-1.61,.44-3.19,.67-4.75,.67-2.55,0-4.91-.46-7.05-1.39-2.15-.93-3.99-2.22-5.53-3.89s-2.71-3.6-3.53-5.8-1.22-4.54-1.22-7.03c0-1.22,.09-2.42,.28-3.61,.48-2.96,1.42-5.79,2.83-8.5,1.41-2.7,3.21-5.1,5.41-7.19,2.2-2.09,4.67-3.73,7.39-4.91,2.72-1.18,5.58-1.78,8.58-1.78,3.26,0,6.24,.81,8.94,2.44l-1.56,9.77Z"></path>
    <path class="cls-2 svg-elem-8" d="M255.48,3.1h10.05l-18.94,19.33,13.22,22.55h-10.5l-10.38-18.83h-.11l-3,18.83h-8.16l6.61-41.87h8.16l-2.78,17.66h.11l15.72-17.66Z"></path>
    <path class="cls-2 svg-elem-9" d="M286.3,44.97h-8.16l6.61-41.87h8.16l-6.61,41.87Z"></path>
    <path class="cls-2 svg-elem-10" d="M305.85,44.97h-8.16l5.5-34.76h-8.44l1.11-7.11h25.05l-1.11,7.11h-8.44l-5.5,34.76Z"></path>
  </g>
</svg>